<svg width="113" height="124" viewBox="0 0 113 124" fill="none" xmlns="http://www.w3.org/2000/svg">
<path d="M47.456 85.768C44.8533 85.768 42.464 85.192 40.288 84.04C38.1547 82.888 36.448 81.288 35.168 79.24C33.9307 77.192 33.312 74.76 33.312 71.944V52.424C33.312 51.7413 33.1413 51.1227 32.8 50.568C32.4587 50.0133 32.0107 49.5653 31.456 49.224C30.9013 48.8827 30.2827 48.712 29.6 48.712C28.9173 48.712 28.2987 48.8827 27.744 49.224C27.1893 49.5653 26.7413 50.0133 26.4 50.568C26.1013 51.1227 25.952 51.7413 25.952 52.424V85H15.456V53.192C15.456 50.504 16.0533 48.136 17.248 46.088C18.4853 44.04 20.1707 42.4187 22.304 41.224C24.48 40.0293 26.912 39.432 29.6 39.432C32.3307 39.432 34.7627 40.0293 36.896 41.224C39.0293 42.4187 40.7147 44.04 41.952 46.088C43.1893 48.136 43.808 50.504 43.808 53.192V72.712C43.808 73.4373 43.9787 74.0773 44.32 74.632C44.6613 75.1867 45.088 75.6347 45.6 75.976C46.1547 76.2747 46.752 76.424 47.392 76.424C48.0747 76.424 48.6933 76.2747 49.248 75.976C49.8453 75.6347 50.3147 75.1867 50.656 74.632C50.9973 74.0773 51.168 73.4373 51.168 72.712V53.192C51.168 50.504 51.7867 48.136 53.024 46.088C54.2613 44.04 55.9467 42.4187 58.08 41.224C60.256 40.0293 62.6667 39.432 65.312 39.432C68.0427 39.432 70.4533 40.0293 72.544 41.224C74.6773 42.4187 76.3627 44.04 77.6 46.088C78.8373 48.136 79.456 50.504 79.456 53.192V85H68.96V52.36C68.96 51.6773 68.7893 51.08 68.448 50.568C68.1493 50.0133 67.7227 49.5653 67.168 49.224C66.6133 48.8827 65.9947 48.712 65.312 48.712C64.672 48.712 64.0533 48.8827 63.456 49.224C62.9013 49.5653 62.4533 50.0133 62.112 50.568C61.7707 51.08 61.6 51.6773 61.6 52.36V71.944C61.6 74.76 60.96 77.192 59.68 79.24C58.4 81.288 56.6933 82.888 54.56 84.04C52.4267 85.192 50.0587 85.768 47.456 85.768Z" fill="url(#paint0_linear_514_653)"/>
<path d="M65.456 73.768C62.8533 73.768 60.464 73.192 58.288 72.04C56.1547 70.888 54.448 69.288 53.168 67.24C51.9307 65.192 51.312 62.76 51.312 59.944V40.424C51.312 39.7413 51.1413 39.1227 50.8 38.568C50.4587 38.0133 50.0107 37.5653 49.456 37.224C48.9013 36.8827 48.2827 36.712 47.6 36.712C46.9173 36.712 46.2987 36.8827 45.744 37.224C45.1893 37.5653 44.7413 38.0133 44.4 38.568C44.1013 39.1227 43.952 39.7413 43.952 40.424V73H33.456V41.192C33.456 38.504 34.0533 36.136 35.248 34.088C36.4853 32.04 38.1707 30.4187 40.304 29.224C42.48 28.0293 44.912 27.432 47.6 27.432C50.3307 27.432 52.7627 28.0293 54.896 29.224C57.0293 30.4187 58.7147 32.04 59.952 34.088C61.1893 36.136 61.808 38.504 61.808 41.192V60.712C61.808 61.4373 61.9787 62.0773 62.32 62.632C62.6613 63.1867 63.088 63.6347 63.6 63.976C64.1547 64.2747 64.752 64.424 65.392 64.424C66.0747 64.424 66.6933 64.2747 67.248 63.976C67.8453 63.6347 68.3147 63.1867 68.656 62.632C68.9973 62.0773 69.168 61.4373 69.168 60.712V41.192C69.168 38.504 69.7867 36.136 71.024 34.088C72.2613 32.04 73.9467 30.4187 76.08 29.224C78.256 28.0293 80.6667 27.432 83.312 27.432C86.0427 27.432 88.4533 28.0293 90.544 29.224C92.6773 30.4187 94.3627 32.04 95.6 34.088C96.8373 36.136 97.456 38.504 97.456 41.192V73H86.96V40.36C86.96 39.6773 86.7893 39.08 86.448 38.568C86.1493 38.0133 85.7227 37.5653 85.168 37.224C84.6133 36.8827 83.9947 36.712 83.312 36.712C82.672 36.712 82.0533 36.8827 81.456 37.224C80.9013 37.5653 80.4533 38.0133 80.112 38.568C79.7707 39.08 79.6 39.6773 79.6 40.36V59.944C79.6 62.76 78.96 65.192 77.68 67.24C76.4 69.288 74.6933 70.888 72.56 72.04C70.4267 73.192 68.0587 73.768 65.456 73.768Z" fill="url(#paint1_linear_514_653)"/>
<path d="M65.544 39.232C68.1467 39.232 70.536 39.808 72.712 40.96C74.8453 42.112 76.552 43.712 77.832 45.76C79.0693 47.808 79.688 50.24 79.688 53.056V72.576C79.688 73.2587 79.8587 73.8773 80.2 74.432C80.5413 74.9867 80.9893 75.4347 81.544 75.776C82.0987 76.1173 82.7173 76.288 83.4 76.288C84.0827 76.288 84.7013 76.1173 85.256 75.776C85.8107 75.4347 86.2587 74.9867 86.6 74.432C86.8987 73.8773 87.048 73.2587 87.048 72.576L87.048 40H97.544L97.544 71.808C97.544 74.496 96.9467 76.864 95.752 78.912C94.5147 80.96 92.8293 82.5813 90.696 83.776C88.52 84.9707 86.088 85.568 83.4 85.568C80.6693 85.568 78.2373 84.9707 76.104 83.776C73.9707 82.5813 72.2853 80.96 71.048 78.912C69.8107 76.864 69.192 74.496 69.192 71.808V52.288C69.192 51.5627 69.0213 50.9227 68.68 50.368C68.3387 49.8133 67.912 49.3653 67.4 49.024C66.8453 48.7253 66.248 48.576 65.608 48.576C64.9253 48.576 64.3067 48.7253 63.752 49.024C63.1547 49.3653 62.6853 49.8133 62.344 50.368C62.0027 50.9227 61.832 51.5627 61.832 52.288V71.808C61.832 74.496 61.2133 76.864 59.976 78.912C58.7387 80.96 57.0533 82.5813 54.92 83.776C52.744 84.9707 50.3333 85.568 47.688 85.568C44.9573 85.568 42.5467 84.9707 40.456 83.776C38.3227 82.5813 36.6373 80.96 35.4 78.912C34.1627 76.864 33.544 74.496 33.544 71.808L33.544 40L44.04 40V72.64C44.04 73.3227 44.2107 73.92 44.552 74.432C44.8507 74.9867 45.2773 75.4347 45.832 75.776C46.3867 76.1173 47.0053 76.288 47.688 76.288C48.328 76.288 48.9467 76.1173 49.544 75.776C50.0987 75.4347 50.5467 74.9867 50.888 74.432C51.2293 73.92 51.4 73.3227 51.4 72.64V53.056C51.4 50.24 52.04 47.808 53.32 45.76C54.6 43.712 56.3067 42.112 58.44 40.96C60.5733 39.808 62.9413 39.232 65.544 39.232Z" fill="url(#paint2_linear_514_653)"/>
<path d="M47.544 50.232C50.1467 50.232 52.536 50.808 54.712 51.96C56.8453 53.112 58.552 54.712 59.832 56.76C61.0693 58.808 61.688 61.24 61.688 64.056L61.688 83.576C61.688 84.2587 61.8587 84.8773 62.2 85.432C62.5413 85.9867 62.9893 86.4347 63.544 86.776C64.0987 87.1173 64.7173 87.288 65.4 87.288C66.0827 87.288 66.7013 87.1173 67.256 86.776C67.8107 86.4347 68.2587 85.9867 68.6 85.432C68.8987 84.8773 69.048 84.2587 69.048 83.576L69.048 51H79.544L79.544 82.808C79.544 85.496 78.9467 87.864 77.752 89.912C76.5147 91.96 74.8293 93.5813 72.696 94.776C70.52 95.9707 68.088 96.568 65.4 96.568C62.6693 96.568 60.2373 95.9707 58.104 94.776C55.9707 93.5813 54.2853 91.96 53.048 89.912C51.8107 87.864 51.192 85.496 51.192 82.808L51.192 63.288C51.192 62.5627 51.0213 61.9227 50.68 61.368C50.3387 60.8133 49.912 60.3653 49.4 60.024C48.8453 59.7253 48.248 59.576 47.608 59.576C46.9253 59.576 46.3067 59.7253 45.752 60.024C45.1547 60.3653 44.6853 60.8133 44.344 61.368C44.0027 61.9227 43.832 62.5627 43.832 63.288V82.808C43.832 85.496 43.2133 87.864 41.976 89.912C40.7387 91.96 39.0533 93.5813 36.92 94.776C34.744 95.9707 32.3333 96.568 29.688 96.568C26.9573 96.568 24.5467 95.9707 22.456 94.776C20.3227 93.5813 18.6373 91.96 17.4 89.912C16.1627 87.864 15.544 85.496 15.544 82.808L15.544 51L26.04 51V83.64C26.04 84.3227 26.2107 84.92 26.552 85.432C26.8507 85.9867 27.2773 86.4347 27.832 86.776C28.3867 87.1173 29.0053 87.288 29.688 87.288C30.328 87.288 30.9467 87.1173 31.544 86.776C32.0987 86.4347 32.5467 85.9867 32.888 85.432C33.2293 84.92 33.4 84.3227 33.4 83.64V64.056C33.4 61.24 34.04 58.808 35.32 56.76C36.6 54.712 38.3067 53.112 40.44 51.96C42.5733 50.808 44.9413 50.232 47.544 50.232Z" fill="url(#paint3_linear_514_653)"/>
<defs>
<linearGradient id="paint0_linear_514_653" x1="71" y1="85" x2="72" y2="43" gradientUnits="userSpaceOnUse">
<stop stop-color="#F35130"/>
<stop offset="1" stop-color="#FAA500"/>
</linearGradient>
<linearGradient id="paint1_linear_514_653" x1="72" y1="38" x2="72" y2="71" gradientUnits="userSpaceOnUse">
<stop stop-color="#FAA500"/>
<stop offset="1" stop-color="#F35130"/>
</linearGradient>
<linearGradient id="paint2_linear_514_653" x1="42" y1="40" x2="41" y2="82" gradientUnits="userSpaceOnUse">
<stop stop-color="#FAA500"/>
<stop offset="1" stop-color="#F35130"/>
</linearGradient>
<linearGradient id="paint3_linear_514_653" x1="41" y1="86" x2="40" y2="37.5" gradientUnits="userSpaceOnUse">
<stop stop-color="#F35130"/>
<stop offset="1" stop-color="#FAA500"/>
</linearGradient>
</defs>
</svg>
