<svg width="46" height="46" viewBox="0 0 46 46" fill="none" xmlns="http://www.w3.org/2000/svg">
<mask id="path-1-outside-1_519_500" maskUnits="userSpaceOnUse" x="14.6753" y="0.5" width="31" height="23" fill="black">
<rect fill="white" x="14.6753" y="0.5" width="31" height="23"/>
<path d="M30.6333 21.824C29.5353 21.824 28.5273 21.581 27.6093 21.095C26.7093 20.609 25.9893 19.934 25.4493 19.07C24.9273 18.206 24.6663 17.18 24.6663 15.992V7.757C24.6663 7.469 24.5943 7.208 24.4503 6.974C24.3063 6.74 24.1173 6.551 23.8833 6.407C23.6493 6.263 23.3883 6.191 23.1003 6.191C22.8123 6.191 22.5513 6.263 22.3173 6.407C22.0833 6.551 21.8943 6.74 21.7503 6.974C21.6243 7.208 21.5613 7.469 21.5613 7.757V21.5H17.1333V8.081C17.1333 6.947 17.3853 5.948 17.8893 5.084C18.4113 4.22 19.1223 3.536 20.0223 3.032C20.9403 2.528 21.9663 2.276 23.1003 2.276C24.2523 2.276 25.2783 2.528 26.1783 3.032C27.0783 3.536 27.7893 4.22 28.3113 5.084C28.8333 5.948 29.0943 6.947 29.0943 8.081V16.316C29.0943 16.622 29.1663 16.892 29.3103 17.126C29.4543 17.36 29.6343 17.549 29.8503 17.693C30.0843 17.819 30.3363 17.882 30.6063 17.882C30.8943 17.882 31.1553 17.819 31.3893 17.693C31.6413 17.549 31.8393 17.36 31.9833 17.126C32.1273 16.892 32.1993 16.622 32.1993 16.316V8.081C32.1993 6.947 32.4603 5.948 32.9823 5.084C33.5043 4.22 34.2153 3.536 35.1153 3.032C36.0333 2.528 37.0503 2.276 38.1663 2.276C39.3183 2.276 40.3353 2.528 41.2173 3.032C42.1173 3.536 42.8283 4.22 43.3503 5.084C43.8723 5.948 44.1333 6.947 44.1333 8.081V21.5H39.7053V7.73C39.7053 7.442 39.6333 7.19 39.4893 6.974C39.3633 6.74 39.1833 6.551 38.9493 6.407C38.7153 6.263 38.4543 6.191 38.1663 6.191C37.8963 6.191 37.6353 6.263 37.3833 6.407C37.1493 6.551 36.9603 6.74 36.8163 6.974C36.6723 7.19 36.6003 7.442 36.6003 7.73V15.992C36.6003 17.18 36.3303 18.206 35.7903 19.07C35.2503 19.934 34.5303 20.609 33.6303 21.095C32.7303 21.581 31.7313 21.824 30.6333 21.824Z"/>
</mask>
<path d="M30.6333 21.824C29.5353 21.824 28.5273 21.581 27.6093 21.095C26.7093 20.609 25.9893 19.934 25.4493 19.07C24.9273 18.206 24.6663 17.18 24.6663 15.992V7.757C24.6663 7.469 24.5943 7.208 24.4503 6.974C24.3063 6.74 24.1173 6.551 23.8833 6.407C23.6493 6.263 23.3883 6.191 23.1003 6.191C22.8123 6.191 22.5513 6.263 22.3173 6.407C22.0833 6.551 21.8943 6.74 21.7503 6.974C21.6243 7.208 21.5613 7.469 21.5613 7.757V21.5H17.1333V8.081C17.1333 6.947 17.3853 5.948 17.8893 5.084C18.4113 4.22 19.1223 3.536 20.0223 3.032C20.9403 2.528 21.9663 2.276 23.1003 2.276C24.2523 2.276 25.2783 2.528 26.1783 3.032C27.0783 3.536 27.7893 4.22 28.3113 5.084C28.8333 5.948 29.0943 6.947 29.0943 8.081V16.316C29.0943 16.622 29.1663 16.892 29.3103 17.126C29.4543 17.36 29.6343 17.549 29.8503 17.693C30.0843 17.819 30.3363 17.882 30.6063 17.882C30.8943 17.882 31.1553 17.819 31.3893 17.693C31.6413 17.549 31.8393 17.36 31.9833 17.126C32.1273 16.892 32.1993 16.622 32.1993 16.316V8.081C32.1993 6.947 32.4603 5.948 32.9823 5.084C33.5043 4.22 34.2153 3.536 35.1153 3.032C36.0333 2.528 37.0503 2.276 38.1663 2.276C39.3183 2.276 40.3353 2.528 41.2173 3.032C42.1173 3.536 42.8283 4.22 43.3503 5.084C43.8723 5.948 44.1333 6.947 44.1333 8.081V21.5H39.7053V7.73C39.7053 7.442 39.6333 7.19 39.4893 6.974C39.3633 6.74 39.1833 6.551 38.9493 6.407C38.7153 6.263 38.4543 6.191 38.1663 6.191C37.8963 6.191 37.6353 6.263 37.3833 6.407C37.1493 6.551 36.9603 6.74 36.8163 6.974C36.6723 7.19 36.6003 7.442 36.6003 7.73V15.992C36.6003 17.18 36.3303 18.206 35.7903 19.07C35.2503 19.934 34.5303 20.609 33.6303 21.095C32.7303 21.581 31.7313 21.824 30.6333 21.824Z" fill="black"/>
<path d="M27.6093 21.095L26.8965 22.4149L26.9075 22.4207L27.6093 21.095ZM25.4493 19.07L24.1654 19.8457L24.1713 19.8554L24.1773 19.865L25.4493 19.07ZM24.4503 6.974L25.7278 6.18785L25.7278 6.18785L24.4503 6.974ZM23.8833 6.407L24.6694 5.12951L24.6694 5.12951L23.8833 6.407ZM21.7503 6.974L20.4728 6.18785L20.4501 6.22473L20.4296 6.26285L21.7503 6.974ZM21.5613 21.5V23H23.0613V21.5H21.5613ZM17.1333 21.5H15.6333V23H17.1333V21.5ZM17.8893 5.084L16.6054 4.30833L16.5994 4.31821L16.5936 4.32819L17.8893 5.084ZM20.0223 3.032L19.3004 1.71709L19.2894 1.72324L20.0223 3.032ZM26.1783 3.032L26.9112 1.72324L26.9112 1.72324L26.1783 3.032ZM28.3113 5.084L29.5952 4.30833L29.5952 4.30832L28.3113 5.084ZM29.3103 17.126L28.0328 17.9121L28.0328 17.9121L29.3103 17.126ZM29.8503 17.693L29.0182 18.9411L29.077 18.9802L29.1391 19.0137L29.8503 17.693ZM31.3893 17.693L32.1004 19.0137L32.1171 19.0047L32.1335 18.9954L31.3893 17.693ZM31.9833 17.126L33.2608 17.9121L33.2608 17.9121L31.9833 17.126ZM32.9823 5.084L31.6984 4.30833L31.6984 4.30833L32.9823 5.084ZM35.1153 3.032L34.3934 1.71709L34.3824 1.72324L35.1153 3.032ZM41.2173 3.032L40.4731 4.33441L40.4844 4.34076L41.2173 3.032ZM43.3503 5.084L44.6342 4.30833L44.6342 4.30832L43.3503 5.084ZM44.1333 21.5V23H45.6333V21.5H44.1333ZM39.7053 21.5H38.2053V23H39.7053V21.5ZM39.4893 6.974L38.1686 7.68515L38.2021 7.74731L38.2412 7.80605L39.4893 6.974ZM37.3833 6.407L36.6391 5.10464L36.6179 5.11673L36.5971 5.12951L37.3833 6.407ZM36.8163 6.974L38.0644 7.80605L38.0795 7.78336L38.0938 7.76014L36.8163 6.974ZM35.7903 19.07L37.0623 19.865L37.0623 19.865L35.7903 19.07ZM33.6303 21.095L34.343 22.4149L34.343 22.4149L33.6303 21.095ZM30.6333 21.824V20.324C29.7656 20.324 29.0005 20.1343 28.3111 19.7693L27.6093 21.095L26.9075 22.4207C28.0541 23.0277 29.305 23.324 30.6333 23.324V21.824ZM27.6093 21.095L28.322 19.7751C27.6498 19.4122 27.1229 18.9176 26.7213 18.275L25.4493 19.07L24.1773 19.865C24.8556 20.9504 25.7687 21.8058 26.8966 22.4149L27.6093 21.095ZM25.4493 19.07L26.7332 18.2943C26.3759 17.7029 26.1663 16.9555 26.1663 15.992H24.6663H23.1663C23.1663 17.4045 23.4787 18.7091 24.1654 19.8457L25.4493 19.07ZM24.6663 15.992H26.1663V7.757H24.6663H23.1663V15.992H24.6663ZM24.6663 7.757H26.1663C26.1663 7.20542 26.0244 6.66992 25.7278 6.18785L24.4503 6.974L23.1728 7.76014C23.1728 7.76014 23.1727 7.76001 23.1726 7.75973C23.1724 7.75946 23.1722 7.75907 23.1719 7.75856C23.1714 7.75752 23.1707 7.75615 23.17 7.75448C23.1684 7.75095 23.1672 7.74732 23.1663 7.74414C23.1654 7.74099 23.1654 7.73976 23.1655 7.74111C23.1657 7.74253 23.1663 7.74762 23.1663 7.757H24.6663ZM24.4503 6.974L25.7278 6.18785C25.4607 5.75387 25.1034 5.39658 24.6694 5.12951L23.8833 6.407L23.0971 7.68449C23.1312 7.70542 23.1519 7.72613 23.1728 7.76015L24.4503 6.974ZM23.8833 6.407L24.6694 5.12951C24.1874 4.83286 23.6519 4.691 23.1003 4.691V6.191V7.691C23.1097 7.691 23.1148 7.69158 23.1162 7.69176C23.1175 7.69194 23.1163 7.69186 23.1131 7.69099C23.11 7.69011 23.1063 7.68885 23.1028 7.68731C23.1011 7.68658 23.0998 7.68591 23.0987 7.68536C23.0982 7.6851 23.0978 7.68488 23.0976 7.68473C23.0973 7.68457 23.0971 7.68449 23.0971 7.68449L23.8833 6.407ZM23.1003 6.191V4.691C22.5487 4.691 22.0132 4.83286 21.5311 5.12951L22.3173 6.407L23.1034 7.68449C23.1034 7.68449 23.1033 7.68457 23.103 7.68473C23.1028 7.68488 23.1024 7.6851 23.1019 7.68536C23.1008 7.68591 23.0994 7.68658 23.0978 7.68731C23.0942 7.68885 23.0906 7.69011 23.0874 7.69099C23.0843 7.69186 23.0831 7.69194 23.0844 7.69176C23.0858 7.69158 23.0909 7.691 23.1003 7.691V6.191ZM22.3173 6.407L21.5311 5.12951C21.0972 5.39658 20.7399 5.75387 20.4728 6.18785L21.7503 6.974L23.0278 7.76015C23.0487 7.72613 23.0694 7.70542 23.1034 7.68449L22.3173 6.407ZM21.7503 6.974L20.4296 6.26285C20.1762 6.73343 20.0613 7.24206 20.0613 7.757H21.5613H23.0613C23.0613 7.72302 23.0649 7.70444 23.0667 7.69721C23.0683 7.69054 23.0697 7.68764 23.071 7.68515L21.7503 6.974ZM21.5613 7.757H20.0613V21.5H21.5613H23.0613V7.757H21.5613ZM21.5613 21.5V20H17.1333V21.5V23H21.5613V21.5ZM17.1333 21.5H18.6333V8.081H17.1333H15.6333V21.5H17.1333ZM17.1333 8.081H18.6333C18.6333 7.17639 18.8319 6.44504 19.185 5.83981L17.8893 5.084L16.5936 4.32819C15.9387 5.45096 15.6333 6.71761 15.6333 8.081H17.1333ZM17.8893 5.084L19.1732 5.85967C19.5577 5.22313 20.0767 4.72069 20.7552 4.34076L20.0223 3.032L19.2894 1.72324C18.1678 2.35131 17.2648 3.21687 16.6054 4.30833L17.8893 5.084ZM20.0223 3.032L20.7442 4.34687C21.4229 3.97426 22.1972 3.776 23.1003 3.776V2.276V0.776C21.7354 0.776 20.4577 1.08174 19.3004 1.71713L20.0223 3.032ZM23.1003 2.276V3.776C24.0262 3.776 24.7946 3.97629 25.4454 4.34076L26.1783 3.032L26.9112 1.72324C25.762 1.07971 24.4784 0.776 23.1003 0.776V2.276ZM26.1783 3.032L25.4454 4.34076C26.1238 4.72069 26.6428 5.22313 27.0274 5.85967L28.3113 5.084L29.5952 4.30832C28.9357 3.21687 28.0327 2.35131 26.9112 1.72324L26.1783 3.032ZM28.3113 5.084L27.0274 5.85967C27.3912 6.46171 27.5943 7.18584 27.5943 8.081H29.0943H30.5943C30.5943 6.70816 30.2754 5.43429 29.5952 4.30833L28.3113 5.084ZM29.0943 8.081H27.5943V16.316H29.0943H30.5943V8.081H29.0943ZM29.0943 16.316H27.5943C27.5943 16.8671 27.7272 17.4155 28.0328 17.9121L29.3103 17.126L30.5878 16.3399C30.5902 16.3437 30.5925 16.3482 30.5945 16.3529C30.5965 16.3575 30.5974 16.3606 30.5976 16.3615C30.5983 16.3639 30.5943 16.3508 30.5943 16.316H29.0943ZM29.3103 17.126L28.0328 17.9121C28.2835 18.3195 28.6118 18.6701 29.0182 18.9411L29.8503 17.693L30.6823 16.4449C30.6568 16.4279 30.6251 16.4005 30.5878 16.3399L29.3103 17.126ZM29.8503 17.693L29.1391 19.0137C29.5953 19.2593 30.0922 19.382 30.6063 19.382V17.882V16.382C30.5891 16.382 30.581 16.3801 30.5786 16.3795C30.5763 16.379 30.5713 16.3776 30.5614 16.3723L29.8503 17.693ZM30.6063 17.882V19.382C31.1212 19.382 31.6299 19.2671 32.1004 19.0137L31.3893 17.693L30.6781 16.3723C30.6757 16.3736 30.6728 16.375 30.6661 16.3766C30.6589 16.3784 30.6403 16.382 30.6063 16.382V17.882ZM31.3893 17.693L32.1335 18.9954C32.591 18.7339 32.9776 18.3723 33.2608 17.9121L31.9833 17.126L30.7058 16.3399C30.701 16.3477 30.6916 16.3641 30.6451 16.3906L31.3893 17.693ZM31.9833 17.126L33.2608 17.9121C33.5664 17.4155 33.6993 16.8671 33.6993 16.316H32.1993H30.6993C30.6993 16.3508 30.6953 16.3639 30.6959 16.3615C30.6962 16.3606 30.6971 16.3575 30.6991 16.3529C30.7011 16.3482 30.7034 16.3437 30.7058 16.3399L31.9833 17.126ZM32.1993 16.316H33.6993V8.081H32.1993H30.6993V16.316H32.1993ZM32.1993 8.081H33.6993C33.6993 7.18584 33.9024 6.46171 34.2662 5.85967L32.9823 5.084L31.6984 4.30833C31.0182 5.43429 30.6993 6.70816 30.6993 8.081H32.1993ZM32.9823 5.084L34.2662 5.85967C34.6507 5.22313 35.1697 4.72069 35.8482 4.34076L35.1153 3.032L34.3824 1.72324C33.2608 2.35131 32.3578 3.21687 31.6984 4.30833L32.9823 5.084ZM35.1153 3.032L35.8372 4.34687C36.5194 3.97229 37.2856 3.776 38.1663 3.776V2.276V0.776C36.815 0.776 35.5471 1.08371 34.3934 1.71713L35.1153 3.032ZM38.1663 2.276V3.776C39.0928 3.776 39.8468 3.97646 40.4731 4.33436L41.2173 3.032L41.9615 1.72963C40.8238 1.07954 39.5437 0.776 38.1663 0.776V2.276ZM41.2173 3.032L40.4844 4.34076C41.1628 4.72069 41.6818 5.22313 42.0664 5.85967L43.3503 5.084L44.6342 4.30832C43.9747 3.21687 43.0717 2.35131 41.9502 1.72324L41.2173 3.032ZM43.3503 5.084L42.0664 5.85967C42.4302 6.46171 42.6333 7.18583 42.6333 8.081H44.1333H45.6333C45.6333 6.70817 45.3144 5.43429 44.6342 4.30833L43.3503 5.084ZM44.1333 8.081H42.6333V21.5H44.1333H45.6333V8.081H44.1333ZM44.1333 21.5V20H39.7053V21.5V23H44.1333V21.5ZM39.7053 21.5H41.2053V7.73H39.7053H38.2053V21.5H39.7053ZM39.7053 7.73H41.2053C41.2053 7.17952 41.0634 6.63094 40.7374 6.14195L39.4893 6.974L38.2412 7.80605C38.2263 7.7837 38.2152 7.75882 38.209 7.73708C38.2031 7.71656 38.2053 7.71174 38.2053 7.73H39.7053ZM39.4893 6.974L40.81 6.26285C40.5544 5.78821 40.1864 5.40704 39.7354 5.12951L38.9493 6.407L38.1631 7.68449C38.1699 7.68865 38.1734 7.69137 38.1745 7.69226C38.1756 7.69312 38.1751 7.69278 38.1736 7.69123C38.1721 7.68967 38.1706 7.68784 38.1693 7.68612C38.1681 7.68441 38.1679 7.68387 38.1686 7.68515L39.4893 6.974ZM38.9493 6.407L39.7354 5.12951C39.2534 4.83286 38.7179 4.691 38.1663 4.691V6.191V7.691C38.1757 7.691 38.1808 7.69158 38.1822 7.69176C38.1835 7.69194 38.1823 7.69186 38.1791 7.69099C38.176 7.69011 38.1723 7.68885 38.1688 7.68731C38.1671 7.68658 38.1658 7.68591 38.1647 7.68536C38.1642 7.6851 38.1638 7.68488 38.1636 7.68473C38.1633 7.68457 38.1631 7.68449 38.1631 7.68449L38.9493 6.407ZM38.1663 6.191V4.691C37.6158 4.691 37.1002 4.84115 36.6391 5.10464L37.3833 6.407L38.1275 7.70936C38.1526 7.69501 38.1654 7.69141 38.1669 7.69099C38.1681 7.69068 38.168 7.69077 38.167 7.6909C38.1661 7.69102 38.1657 7.691 38.1663 7.691V6.191ZM37.3833 6.407L36.5971 5.12951C36.1632 5.39658 35.8059 5.75387 35.5388 6.18785L36.8163 6.974L38.0938 7.76014C38.1147 7.72613 38.1354 7.70542 38.1694 7.68449L37.3833 6.407ZM36.8163 6.974L35.5682 6.14195C35.2422 6.63094 35.1003 7.17952 35.1003 7.73H36.6003H38.1003C38.1003 7.71174 38.1024 7.71656 38.0966 7.73708C38.0904 7.75882 38.0793 7.7837 38.0644 7.80605L36.8163 6.974ZM36.6003 7.73H35.1003V15.992H36.6003H38.1003V7.73H36.6003ZM36.6003 15.992H35.1003C35.1003 16.9463 34.886 17.6867 34.5183 18.275L35.7903 19.07L37.0623 19.865C37.7746 18.7253 38.1003 17.4137 38.1003 15.992H36.6003ZM35.7903 19.07L34.5183 18.275C34.1166 18.9176 33.5897 19.4122 32.9176 19.7751L33.6303 21.095L34.343 22.4149C35.4708 21.8058 36.3839 20.9504 37.0623 19.865L35.7903 19.07ZM33.6303 21.095L32.9176 19.7751C32.2525 20.1343 31.5013 20.324 30.6333 20.324V21.824V23.324C31.9613 23.324 33.2081 23.0277 34.343 22.4149L33.6303 21.095Z" fill="white" mask="url(#path-1-outside-1_519_500)"/>
<mask id="path-3-outside-2_519_500" maskUnits="userSpaceOnUse" x="0.0249023" y="22.5" width="24" height="23" fill="black">
<rect fill="white" x="0.0249023" y="22.5" width="24" height="23"/>
<path d="M8.0669 24.176C9.2009 24.176 10.2179 24.419 11.1179 24.905C12.0179 25.409 12.7289 26.102 13.2509 26.984C13.7729 27.866 14.0339 28.865 14.0339 29.981V38.243C14.0339 38.531 14.1059 38.792 14.2499 39.026C14.3939 39.26 14.5829 39.449 14.8169 39.593C15.0509 39.737 15.3119 39.809 15.5999 39.809C15.8879 39.809 16.1489 39.737 16.3829 39.593C16.6169 39.449 16.8059 39.26 16.9499 39.026C17.0759 38.792 17.1389 38.531 17.1389 38.243L17.1389 24.5H21.5669L21.5669 37.919C21.5669 39.053 21.3149 40.052 20.8109 40.916C20.2889 41.78 19.5779 42.464 18.6779 42.968C17.7599 43.472 16.7339 43.724 15.5999 43.724C14.4479 43.724 13.4219 43.472 12.5219 42.968C11.6219 42.464 10.9109 41.78 10.3889 40.916C9.8669 40.052 9.6059 39.053 9.6059 37.919V29.657C9.6059 29.369 9.5339 29.099 9.3899 28.847C9.2459 28.613 9.0659 28.424 8.8499 28.28C8.6159 28.154 8.3639 28.091 8.0939 28.091C7.8059 28.091 7.5449 28.154 7.3109 28.28C7.0589 28.424 6.8609 28.613 6.7169 28.847C6.5729 29.099 6.5009 29.369 6.5009 29.657L6.5009 43.4H2.0999L2.0999 29.981C2.0999 28.865 2.3609 27.866 2.8829 26.984C3.4049 26.102 4.1159 25.409 5.0159 24.905C5.9159 24.419 6.9329 24.176 8.0669 24.176Z"/>
</mask>
<path d="M8.0669 24.176C9.2009 24.176 10.2179 24.419 11.1179 24.905C12.0179 25.409 12.7289 26.102 13.2509 26.984C13.7729 27.866 14.0339 28.865 14.0339 29.981V38.243C14.0339 38.531 14.1059 38.792 14.2499 39.026C14.3939 39.26 14.5829 39.449 14.8169 39.593C15.0509 39.737 15.3119 39.809 15.5999 39.809C15.8879 39.809 16.1489 39.737 16.3829 39.593C16.6169 39.449 16.8059 39.26 16.9499 39.026C17.0759 38.792 17.1389 38.531 17.1389 38.243L17.1389 24.5H21.5669L21.5669 37.919C21.5669 39.053 21.3149 40.052 20.8109 40.916C20.2889 41.78 19.5779 42.464 18.6779 42.968C17.7599 43.472 16.7339 43.724 15.5999 43.724C14.4479 43.724 13.4219 43.472 12.5219 42.968C11.6219 42.464 10.9109 41.78 10.3889 40.916C9.8669 40.052 9.6059 39.053 9.6059 37.919V29.657C9.6059 29.369 9.5339 29.099 9.3899 28.847C9.2459 28.613 9.0659 28.424 8.8499 28.28C8.6159 28.154 8.3639 28.091 8.0939 28.091C7.8059 28.091 7.5449 28.154 7.3109 28.28C7.0589 28.424 6.8609 28.613 6.7169 28.847C6.5729 29.099 6.5009 29.369 6.5009 29.657L6.5009 43.4H2.0999L2.0999 29.981C2.0999 28.865 2.3609 27.866 2.8829 26.984C3.4049 26.102 4.1159 25.409 5.0159 24.905C5.9159 24.419 6.9329 24.176 8.0669 24.176Z" fill="black"/>
<path d="M11.1179 24.905L11.8508 23.5962L11.8408 23.5906L11.8306 23.5851L11.1179 24.905ZM13.2509 26.984L11.96 27.748L11.96 27.748L13.2509 26.984ZM14.2499 39.026L12.9724 39.8121L12.9724 39.8122L14.2499 39.026ZM14.8169 39.593L14.0308 40.8705L14.0308 40.8705L14.8169 39.593ZM16.9499 39.026L18.2274 39.8121L18.2501 39.7753L18.2706 39.7372L16.9499 39.026ZM17.1389 24.5V23H15.6389V24.5H17.1389ZM21.5669 24.5H23.0669V23H21.5669V24.5ZM20.8109 40.916L22.0948 41.6917L22.1007 41.6818L22.1066 41.6718L20.8109 40.916ZM18.6779 42.968L19.3998 44.2829L19.4108 44.2768L18.6779 42.968ZM12.5219 42.968L11.789 44.2768L11.789 44.2768L12.5219 42.968ZM10.3889 40.916L9.10503 41.6917L9.10503 41.6917L10.3889 40.916ZM9.3899 28.847L10.6923 28.1028L10.6802 28.0816L10.6674 28.0609L9.3899 28.847ZM8.8499 28.28L9.68195 27.0319L9.62321 26.9928L9.56105 26.9593L8.8499 28.28ZM7.3109 28.28L6.59975 26.9593L6.58311 26.9683L6.56669 26.9776L7.3109 28.28ZM6.7169 28.847L5.43941 28.0609L5.42664 28.0816L5.41454 28.1028L6.7169 28.847ZM6.5009 43.4V44.9H8.0009V43.4H6.5009ZM2.0999 43.4H0.599901V44.9H2.0999V43.4ZM2.8829 26.984L1.59204 26.22L1.59204 26.22L2.8829 26.984ZM5.0159 24.905L4.30318 23.5851L4.29304 23.5906L4.283 23.5962L5.0159 24.905ZM8.0669 24.176V25.676C8.97963 25.676 9.74717 25.8695 10.4052 26.2249L11.1179 24.905L11.8306 23.5851C10.6886 22.9685 9.42218 22.676 8.0669 22.676V24.176ZM11.1179 24.905L10.385 26.2138C11.0558 26.5894 11.5737 27.0951 11.96 27.748L13.2509 26.984L14.5418 26.22C13.8841 25.1089 12.98 24.2286 11.8508 23.5962L11.1179 24.905ZM13.2509 26.984L11.96 27.748C12.3331 28.3783 12.5339 29.1091 12.5339 29.981H14.0339H15.5339C15.5339 28.6209 15.2127 27.3537 14.5418 26.22L13.2509 26.984ZM14.0339 29.981H12.5339V38.243H14.0339H15.5339L15.5339 29.981H14.0339ZM14.0339 38.243H12.5339C12.5339 38.7946 12.6758 39.3301 12.9724 39.8121L14.2499 39.026L15.5274 38.2399C15.5274 38.2399 15.5275 38.24 15.5276 38.2403C15.5278 38.2405 15.528 38.2409 15.5283 38.2414C15.5288 38.2425 15.5295 38.2439 15.5302 38.2455C15.5318 38.2491 15.533 38.2527 15.5339 38.2559C15.5348 38.259 15.5348 38.2602 15.5347 38.2589C15.5345 38.2575 15.5339 38.2524 15.5339 38.243H14.0339ZM14.2499 39.026L12.9724 39.8122C13.2395 40.2461 13.5968 40.6034 14.0308 40.8705L14.8169 39.593L15.603 38.3155C15.569 38.2946 15.5483 38.2739 15.5274 38.2399L14.2499 39.026ZM14.8169 39.593L14.0308 40.8705C14.5128 41.1671 15.0483 41.309 15.5999 41.309V39.809V38.309C15.5905 38.309 15.5854 38.3084 15.584 38.3082C15.5827 38.3081 15.5839 38.3081 15.587 38.309C15.5902 38.3099 15.5939 38.3112 15.5974 38.3127C15.5991 38.3134 15.6004 38.3141 15.6015 38.3146C15.602 38.3149 15.6024 38.3151 15.6026 38.3153C15.6029 38.3154 15.6031 38.3155 15.603 38.3155L14.8169 39.593ZM15.5999 39.809V41.309C16.1515 41.309 16.687 41.1671 17.169 40.8705L16.3829 39.593L15.5968 38.3155C15.5968 38.3155 15.5969 38.3154 15.5972 38.3153C15.5974 38.3151 15.5978 38.3149 15.5983 38.3146C15.5994 38.3141 15.6008 38.3134 15.6024 38.3127C15.606 38.3112 15.6096 38.3099 15.6128 38.309C15.6159 38.3081 15.6171 38.3081 15.6158 38.3082C15.6144 38.3084 15.6093 38.309 15.5999 38.309V39.809ZM16.3829 39.593L17.169 40.8705C17.603 40.6034 17.9603 40.2461 18.2274 39.8121L16.9499 39.026L15.6724 38.2399C15.6515 38.2739 15.6308 38.2946 15.5968 38.3155L16.3829 39.593ZM16.9499 39.026L18.2706 39.7372C18.524 39.2666 18.6389 38.7579 18.6389 38.243H17.1389H15.6389C15.6389 38.277 15.6353 38.2956 15.6335 38.3028C15.6319 38.3095 15.6305 38.3124 15.6292 38.3149L16.9499 39.026ZM17.1389 38.243H18.6389L18.6389 24.5H17.1389H15.6389L15.6389 38.243H17.1389ZM17.1389 24.5V26H21.5669V24.5V23H17.1389V24.5ZM21.5669 24.5H20.0669L20.0669 37.919H21.5669H23.0669L23.0669 24.5H21.5669ZM21.5669 37.919H20.0669C20.0669 38.8236 19.8683 39.555 19.5152 40.1602L20.8109 40.916L22.1066 41.6718C22.7615 40.549 23.0669 39.2824 23.0669 37.919H21.5669ZM20.8109 40.916L19.527 40.1403C19.1424 40.7769 18.6235 41.2793 17.945 41.6592L18.6779 42.968L19.4108 44.2768C20.5324 43.6487 21.4354 42.7831 22.0948 41.6917L20.8109 40.916ZM18.6779 42.968L17.956 41.6531C17.2773 42.0257 16.503 42.224 15.5999 42.224V43.724V45.224C16.9648 45.224 18.2425 44.9183 19.3998 44.2829L18.6779 42.968ZM15.5999 43.724V42.224C14.674 42.224 13.9056 42.0237 13.2548 41.6592L12.5219 42.968L11.789 44.2768C12.9382 44.9203 14.2218 45.224 15.5999 45.224V43.724ZM12.5219 42.968L13.2548 41.6592C12.5764 41.2793 12.0574 40.7769 11.6728 40.1403L10.3889 40.916L9.10503 41.6917C9.76445 42.7831 10.6675 43.6487 11.789 44.2768L12.5219 42.968ZM10.3889 40.916L11.6728 40.1403C11.309 39.5383 11.1059 38.8142 11.1059 37.919H9.6059H8.1059C8.1059 39.2918 8.42476 40.5657 9.10503 41.6917L10.3889 40.916ZM9.6059 37.919H11.1059V29.657H9.6059H8.1059V37.919H9.6059ZM9.6059 29.657H11.1059C11.1059 29.1058 10.9647 28.5796 10.6923 28.1028L9.3899 28.847L8.08754 29.5912C8.10308 29.6184 8.1059 29.6322 8.1059 29.657H9.6059ZM9.3899 28.847L10.6674 28.0609C10.4167 27.6535 10.0884 27.3029 9.68195 27.0319L8.8499 28.28L8.01785 29.5281C8.04336 29.5451 8.07507 29.5725 8.11242 29.6331L9.3899 28.847ZM8.8499 28.28L9.56105 26.9593C9.10488 26.7137 8.60801 26.591 8.0939 26.591V28.091L8.0939 29.591C8.1111 29.591 8.11919 29.5929 8.1216 29.5935C8.12389 29.594 8.12894 29.5954 8.13875 29.6007L8.8499 28.28ZM8.0939 28.091V26.591C7.57896 26.591 7.07033 26.7059 6.59975 26.9593L7.3109 28.28L8.02205 29.6007C8.02454 29.5994 8.02745 29.598 8.03411 29.5964C8.04134 29.5946 8.05992 29.591 8.0939 29.591L8.0939 28.091ZM7.3109 28.28L6.56669 26.9776C6.10921 27.2391 5.72259 27.6007 5.43941 28.0609L6.7169 28.847L7.99439 29.6331C7.99921 29.6253 8.00859 29.6089 8.05511 29.5824L7.3109 28.28ZM6.7169 28.847L5.41454 28.1028C5.14208 28.5796 5.0009 29.1058 5.0009 29.657H6.5009H8.0009C8.0009 29.6322 8.00372 29.6184 8.01927 29.5912L6.7169 28.847ZM6.5009 29.657H5.0009L5.0009 43.4H6.5009H8.0009L8.0009 29.657H6.5009ZM6.5009 43.4V41.9H2.0999V43.4V44.9H6.5009V43.4ZM2.0999 43.4H3.5999L3.5999 29.981H2.0999H0.599901L0.599901 43.4H2.0999ZM2.0999 29.981H3.5999C3.5999 29.1091 3.80071 28.3783 4.17377 27.748L2.8829 26.984L1.59204 26.22C0.921091 27.3537 0.599901 28.6209 0.599901 29.981H2.0999ZM2.8829 26.984L4.17377 27.748C4.56015 27.0951 5.078 26.5894 5.74881 26.2138L5.0159 24.905L4.283 23.5962C3.1538 24.2286 2.24966 25.1089 1.59204 26.22L2.8829 26.984ZM5.0159 24.905L5.72862 26.2249C6.38664 25.8695 7.15418 25.676 8.0669 25.676V24.176V22.676C6.71163 22.676 5.44517 22.9685 4.30318 23.5851L5.0159 24.905Z" fill="white" mask="url(#path-3-outside-2_519_500)"/>
<rect x="17.1377" y="20" width="4.425" height="6" fill="black"/>
</svg>
