<svg width="183" height="200" viewBox="0 0 183 200" fill="none" xmlns="http://www.w3.org/2000/svg">
<mask id="path-1-outside-1_514_645" maskUnits="userSpaceOnUse" x="4.5" y="53" width="133" height="98" fill="black">
<rect fill="white" x="4.5" y="53" width="133" height="98"/>
<path d="M71.412 148.536C66.2067 148.536 61.428 147.384 57.076 145.08C52.8093 142.776 49.396 139.576 46.836 135.48C44.3613 131.384 43.124 126.52 43.124 120.888V81.848C43.124 80.4827 42.7827 79.2453 42.1 78.136C41.4173 77.0267 40.5213 76.1307 39.412 75.448C38.3027 74.7653 37.0653 74.424 35.7 74.424C34.3347 74.424 33.0973 74.7653 31.988 75.448C30.8787 76.1307 29.9827 77.0267 29.3 78.136C28.7027 79.2453 28.404 80.4827 28.404 81.848V147H7.412V83.384C7.412 78.008 8.60667 73.272 10.996 69.176C13.4707 65.08 16.8413 61.8373 21.108 59.448C25.46 57.0587 30.324 55.864 35.7 55.864C41.1613 55.864 46.0253 57.0587 50.292 59.448C54.5587 61.8373 57.9293 65.08 60.404 69.176C62.8787 73.272 64.116 78.008 64.116 83.384V122.424C64.116 123.875 64.4573 125.155 65.14 126.264C65.8227 127.373 66.676 128.269 67.7 128.952C68.8093 129.549 70.004 129.848 71.284 129.848C72.6493 129.848 73.8867 129.549 74.996 128.952C76.1907 128.269 77.1293 127.373 77.812 126.264C78.4947 125.155 78.836 123.875 78.836 122.424V83.384C78.836 78.008 80.0733 73.272 82.548 69.176C85.0227 65.08 88.3933 61.8373 92.66 59.448C97.012 57.0587 101.833 55.864 107.124 55.864C112.585 55.864 117.407 57.0587 121.588 59.448C125.855 61.8373 129.225 65.08 131.7 69.176C134.175 73.272 135.412 78.008 135.412 83.384V147H114.42V81.72C114.42 80.3547 114.079 79.16 113.396 78.136C112.799 77.0267 111.945 76.1307 110.836 75.448C109.727 74.7653 108.489 74.424 107.124 74.424C105.844 74.424 104.607 74.7653 103.412 75.448C102.303 76.1307 101.407 77.0267 100.724 78.136C100.041 79.16 99.7 80.3547 99.7 81.72V120.888C99.7 126.52 98.42 131.384 95.86 135.48C93.3 139.576 89.8867 142.776 85.62 145.08C81.3533 147.384 76.6173 148.536 71.412 148.536Z"/>
</mask>
<path d="M71.412 148.536C66.2067 148.536 61.428 147.384 57.076 145.08C52.8093 142.776 49.396 139.576 46.836 135.48C44.3613 131.384 43.124 126.52 43.124 120.888V81.848C43.124 80.4827 42.7827 79.2453 42.1 78.136C41.4173 77.0267 40.5213 76.1307 39.412 75.448C38.3027 74.7653 37.0653 74.424 35.7 74.424C34.3347 74.424 33.0973 74.7653 31.988 75.448C30.8787 76.1307 29.9827 77.0267 29.3 78.136C28.7027 79.2453 28.404 80.4827 28.404 81.848V147H7.412V83.384C7.412 78.008 8.60667 73.272 10.996 69.176C13.4707 65.08 16.8413 61.8373 21.108 59.448C25.46 57.0587 30.324 55.864 35.7 55.864C41.1613 55.864 46.0253 57.0587 50.292 59.448C54.5587 61.8373 57.9293 65.08 60.404 69.176C62.8787 73.272 64.116 78.008 64.116 83.384V122.424C64.116 123.875 64.4573 125.155 65.14 126.264C65.8227 127.373 66.676 128.269 67.7 128.952C68.8093 129.549 70.004 129.848 71.284 129.848C72.6493 129.848 73.8867 129.549 74.996 128.952C76.1907 128.269 77.1293 127.373 77.812 126.264C78.4947 125.155 78.836 123.875 78.836 122.424V83.384C78.836 78.008 80.0733 73.272 82.548 69.176C85.0227 65.08 88.3933 61.8373 92.66 59.448C97.012 57.0587 101.833 55.864 107.124 55.864C112.585 55.864 117.407 57.0587 121.588 59.448C125.855 61.8373 129.225 65.08 131.7 69.176C134.175 73.272 135.412 78.008 135.412 83.384V147H114.42V81.72C114.42 80.3547 114.079 79.16 113.396 78.136C112.799 77.0267 111.945 76.1307 110.836 75.448C109.727 74.7653 108.489 74.424 107.124 74.424C105.844 74.424 104.607 74.7653 103.412 75.448C102.303 76.1307 101.407 77.0267 100.724 78.136C100.041 79.16 99.7 80.3547 99.7 81.72V120.888C99.7 126.52 98.42 131.384 95.86 135.48C93.3 139.576 89.8867 142.776 85.62 145.08C81.3533 147.384 76.6173 148.536 71.412 148.536Z" fill="#F35130"/>
<path d="M57.076 145.08L56.1257 146.84L56.133 146.844L56.1402 146.848L57.076 145.08ZM46.836 135.48L45.1242 136.514L45.132 136.527L45.14 136.54L46.836 135.48ZM42.1 78.136L43.8033 77.0878L43.8033 77.0878L42.1 78.136ZM39.412 75.448L40.4602 73.7447L40.4602 73.7447L39.412 75.448ZM29.3 78.136L27.5967 77.0878L27.5664 77.137L27.5391 77.1878L29.3 78.136ZM28.404 147V149H30.404V147H28.404ZM7.412 147H5.412V149H7.412V147ZM10.996 69.176L9.28417 68.1418L9.2762 68.1549L9.26844 68.1683L10.996 69.176ZM21.108 59.448L20.1455 57.6948L20.1381 57.6989L20.1308 57.703L21.108 59.448ZM50.292 59.448L51.2692 57.703L51.2692 57.703L50.292 59.448ZM60.404 69.176L62.1158 68.1418L62.1158 68.1418L60.404 69.176ZM65.14 126.264L63.4367 127.312L63.4367 127.312L65.14 126.264ZM67.7 128.952L66.5906 130.616L66.6689 130.668L66.7518 130.713L67.7 128.952ZM74.996 128.952L75.9442 130.713L75.9664 130.701L75.9883 130.688L74.996 128.952ZM77.812 126.264L79.5153 127.312L79.5153 127.312L77.812 126.264ZM82.548 69.176L80.8362 68.1418L80.8362 68.1418L82.548 69.176ZM92.66 59.448L91.6975 57.6948L91.6901 57.6989L91.6828 57.703L92.66 59.448ZM121.588 59.448L120.596 61.1845L120.603 61.1888L120.611 61.193L121.588 59.448ZM131.7 69.176L133.412 68.1418L133.412 68.1418L131.7 69.176ZM135.412 147V149H137.412V147H135.412ZM114.42 147H112.42V149H114.42V147ZM113.396 78.136L111.635 79.0842L111.68 79.1671L111.732 79.2454L113.396 78.136ZM103.412 75.448L102.42 73.7115L102.391 73.7276L102.364 73.7447L103.412 75.448ZM100.724 78.136L102.388 79.2454L102.408 79.2151L102.427 79.1842L100.724 78.136ZM95.86 135.48L97.556 136.54L97.556 136.54L95.86 135.48ZM85.62 145.08L86.5703 146.84L86.5703 146.84L85.62 145.08ZM71.412 148.536V146.536C66.5137 146.536 62.059 145.455 58.0118 143.312L57.076 145.08L56.1402 146.848C60.797 149.313 65.8997 150.536 71.412 150.536V148.536ZM57.076 145.08L58.0263 143.32C54.0634 141.18 50.9075 138.221 48.532 134.42L46.836 135.48L45.14 136.54C47.8845 140.931 51.5553 144.372 56.1257 146.84L57.076 145.08ZM46.836 135.48L48.5478 134.446C46.2928 130.713 45.124 126.221 45.124 120.888H43.124H41.124C41.124 126.819 42.4299 132.055 45.1242 136.514L46.836 135.48ZM43.124 120.888H45.124V81.848H43.124H41.124V120.888H43.124ZM43.124 81.848H45.124C45.124 80.1312 44.6895 78.5279 43.8033 77.0878L42.1 78.136L40.3967 79.1842C40.8758 79.9628 41.124 80.8341 41.124 81.848H43.124ZM42.1 78.136L43.8033 77.0878C42.9566 75.7118 41.8362 74.5914 40.4602 73.7447L39.412 75.448L38.3638 77.1513C39.2065 77.6699 39.8781 78.3415 40.3967 79.1842L42.1 78.136ZM39.412 75.448L40.4602 73.7447C39.0201 72.8585 37.4168 72.424 35.7 72.424V74.424V76.424C36.7139 76.424 37.5852 76.6722 38.3638 77.1513L39.412 75.448ZM35.7 74.424V72.424C33.9832 72.424 32.3799 72.8585 30.9398 73.7447L31.988 75.448L33.0362 77.1513C33.8148 76.6722 34.6861 76.424 35.7 76.424V74.424ZM31.988 75.448L30.9398 73.7447C29.5638 74.5914 28.4434 75.7118 27.5967 77.0878L29.3 78.136L31.0033 79.1842C31.5219 78.3415 32.1935 77.6699 33.0362 77.1513L31.988 75.448ZM29.3 78.136L27.5391 77.1878C26.7719 78.6126 26.404 80.1801 26.404 81.848H28.404H30.404C30.404 80.7852 30.6335 79.8781 31.0609 79.0842L29.3 78.136ZM28.404 81.848H26.404V147H28.404H30.404V81.848H28.404ZM28.404 147V145H7.412V147V149H28.404V147ZM7.412 147H9.412V83.384H7.412H5.412V147H7.412ZM7.412 83.384H9.412C9.412 78.3139 10.5355 73.9347 12.7236 70.1837L10.996 69.176L9.26844 68.1683C6.67784 72.6093 5.412 77.7021 5.412 83.384H7.412ZM10.996 69.176L12.7078 70.2102C14.9993 66.4175 18.1139 63.4169 22.0852 61.193L21.108 59.448L20.1308 57.703C15.5687 60.2577 11.9421 63.7425 9.28417 68.1418L10.996 69.176ZM21.108 59.448L22.0705 61.2012C26.1034 58.987 30.6319 57.864 35.7 57.864V55.864V53.864C30.0161 53.864 24.8166 55.1303 20.1455 57.6948L21.108 59.448ZM35.7 55.864V57.864C40.8599 57.864 45.3804 58.9897 49.3148 61.193L50.292 59.448L51.2692 57.703C46.6703 55.1276 41.4627 53.864 35.7 53.864V55.864ZM50.292 59.448L49.3148 61.193C53.2861 63.4169 56.4007 66.4175 58.6922 70.2102L60.404 69.176L62.1158 68.1418C59.4579 63.7425 55.8313 60.2577 51.2692 57.703L50.292 59.448ZM60.404 69.176L58.6922 70.2102C60.9558 73.9569 62.116 78.3264 62.116 83.384H64.116H66.116C66.116 77.6896 64.8015 72.587 62.1158 68.1418L60.404 69.176ZM64.116 83.384H62.116V122.424H64.116H66.116V83.384H64.116ZM64.116 122.424H62.116C62.116 124.201 62.5385 125.853 63.4367 127.312L65.14 126.264L66.8433 125.216C66.3761 124.457 66.116 123.548 66.116 122.424H64.116ZM65.14 126.264L63.4367 127.312C64.2616 128.653 65.3126 129.764 66.5906 130.616L67.7 128.952L68.8094 127.288C68.0394 126.775 67.3838 126.094 66.8433 125.216L65.14 126.264ZM67.7 128.952L66.7518 130.713C68.1574 131.47 69.6785 131.848 71.284 131.848V129.848V127.848C70.3295 127.848 69.4613 127.629 68.6482 127.191L67.7 128.952ZM71.284 129.848V131.848C72.9519 131.848 74.5194 131.48 75.9442 130.713L74.996 128.952L74.0478 127.191C73.2539 127.619 72.3468 127.848 71.284 127.848V129.848ZM74.996 128.952L75.9883 130.688C77.4569 129.849 78.6471 128.723 79.5153 127.312L77.812 126.264L76.1087 125.216C75.6116 126.024 74.9244 126.689 74.0037 127.216L74.996 128.952ZM77.812 126.264L79.5153 127.312C80.4135 125.853 80.836 124.201 80.836 122.424H78.836H76.836C76.836 123.548 76.5759 124.457 76.1087 125.216L77.812 126.264ZM78.836 122.424H80.836V83.384H78.836H76.836V122.424H78.836ZM78.836 83.384H80.836C80.836 78.3264 81.9962 73.9569 84.2598 70.2102L82.548 69.176L80.8362 68.1418C78.1505 72.587 76.836 77.6896 76.836 83.384H78.836ZM82.548 69.176L84.2598 70.2102C86.5513 66.4175 89.6659 63.4169 93.6372 61.193L92.66 59.448L91.6828 57.703C87.1207 60.2577 83.4941 63.7425 80.8362 68.1418L82.548 69.176ZM92.66 59.448L93.6225 61.2012C97.6602 58.9844 102.147 57.864 107.124 57.864V55.864V53.864C101.52 53.864 96.3638 55.1329 91.6975 57.6948L92.66 59.448ZM107.124 55.864V57.864C112.285 57.864 116.755 58.9899 120.596 61.1845L121.588 59.448L122.58 57.7115C118.058 55.1274 112.886 53.864 107.124 53.864V55.864ZM121.588 59.448L120.611 61.193C124.582 63.4169 127.697 66.4175 129.988 70.2102L131.7 69.176L133.412 68.1418C130.754 63.7425 127.127 60.2577 122.565 57.703L121.588 59.448ZM131.7 69.176L129.988 70.2102C132.252 73.9569 133.412 78.3264 133.412 83.384H135.412H137.412C137.412 77.6896 136.098 72.587 133.412 68.1418L131.7 69.176ZM135.412 83.384H133.412V147H135.412H137.412V83.384H135.412ZM135.412 147V145H114.42V147V149H135.412V147ZM114.42 147H116.42V81.72H114.42H112.42V147H114.42ZM114.42 81.72H116.42C116.42 80.0047 115.985 78.4146 115.06 77.0266L113.396 78.136L111.732 79.2454C112.172 79.9054 112.42 80.7046 112.42 81.72H114.42ZM113.396 78.136L115.157 77.1878C114.387 75.7576 113.283 74.6054 111.884 73.7447L110.836 75.448L109.788 77.1513C110.608 77.6559 111.21 78.2957 111.635 79.0842L113.396 78.136ZM110.836 75.448L111.884 73.7447C110.444 72.8585 108.841 72.424 107.124 72.424V74.424V76.424C108.138 76.424 109.009 76.6722 109.788 77.1513L110.836 75.448ZM107.124 74.424V72.424C105.47 72.424 103.893 72.8695 102.42 73.7115L103.412 75.448L104.404 77.1845C105.32 76.6611 106.218 76.424 107.124 76.424V74.424ZM103.412 75.448L102.364 73.7447C100.988 74.5914 99.8674 75.7118 99.0207 77.0878L100.724 78.136L102.427 79.1842C102.946 78.3415 103.618 77.6699 104.46 77.1513L103.412 75.448ZM100.724 78.136L99.0599 77.0266C98.1346 78.4146 97.7 80.0047 97.7 81.72H99.7H101.7C101.7 80.7046 101.948 79.9054 102.388 79.2454L100.724 78.136ZM99.7 81.72H97.7V120.888H99.7H101.7V81.72H99.7ZM99.7 120.888H97.7C97.7 126.208 96.4943 130.692 94.164 134.42L95.86 135.48L97.556 136.54C100.346 132.076 101.7 126.832 101.7 120.888H99.7ZM95.86 135.48L94.164 134.42C91.7885 138.221 88.6326 141.18 84.6697 143.32L85.62 145.08L86.5703 146.84C91.1407 144.372 94.8115 140.931 97.556 136.54L95.86 135.48ZM85.62 145.08L84.6697 143.32C80.7163 145.455 76.3106 146.536 71.412 146.536V148.536V150.536C76.924 150.536 81.9904 149.313 86.5703 146.84L85.62 145.08Z" fill="url(#paint0_linear_514_645)" mask="url(#path-1-outside-1_514_645)"/>
<mask id="path-3-outside-2_514_645" maskUnits="userSpaceOnUse" x="12.5" y="53" width="133" height="98" fill="black">
<rect fill="white" x="12.5" y="53" width="133" height="98"/>
<path d="M79.412 148.536C74.2067 148.536 69.428 147.384 65.076 145.08C60.8093 142.776 57.396 139.576 54.836 135.48C52.3613 131.384 51.124 126.52 51.124 120.888V81.848C51.124 80.4827 50.7827 79.2453 50.1 78.136C49.4173 77.0267 48.5213 76.1307 47.412 75.448C46.3027 74.7653 45.0653 74.424 43.7 74.424C42.3347 74.424 41.0973 74.7653 39.988 75.448C38.8787 76.1307 37.9827 77.0267 37.3 78.136C36.7027 79.2453 36.404 80.4827 36.404 81.848V147H15.412V83.384C15.412 78.008 16.6067 73.272 18.996 69.176C21.4707 65.08 24.8413 61.8373 29.108 59.448C33.46 57.0587 38.324 55.864 43.7 55.864C49.1613 55.864 54.0253 57.0587 58.292 59.448C62.5587 61.8373 65.9293 65.08 68.404 69.176C70.8787 73.272 72.116 78.008 72.116 83.384V122.424C72.116 123.875 72.4573 125.155 73.14 126.264C73.8227 127.373 74.676 128.269 75.7 128.952C76.8093 129.549 78.004 129.848 79.284 129.848C80.6493 129.848 81.8867 129.549 82.996 128.952C84.1907 128.269 85.1293 127.373 85.812 126.264C86.4947 125.155 86.836 123.875 86.836 122.424V83.384C86.836 78.008 88.0733 73.272 90.548 69.176C93.0227 65.08 96.3933 61.8373 100.66 59.448C105.012 57.0587 109.833 55.864 115.124 55.864C120.585 55.864 125.407 57.0587 129.588 59.448C133.855 61.8373 137.225 65.08 139.7 69.176C142.175 73.272 143.412 78.008 143.412 83.384V147H122.42V81.72C122.42 80.3547 122.079 79.16 121.396 78.136C120.799 77.0267 119.945 76.1307 118.836 75.448C117.727 74.7653 116.489 74.424 115.124 74.424C113.844 74.424 112.607 74.7653 111.412 75.448C110.303 76.1307 109.407 77.0267 108.724 78.136C108.041 79.16 107.7 80.3547 107.7 81.72V120.888C107.7 126.52 106.42 131.384 103.86 135.48C101.3 139.576 97.8867 142.776 93.62 145.08C89.3533 147.384 84.6173 148.536 79.412 148.536Z"/>
</mask>
<path d="M79.412 148.536C74.2067 148.536 69.428 147.384 65.076 145.08C60.8093 142.776 57.396 139.576 54.836 135.48C52.3613 131.384 51.124 126.52 51.124 120.888V81.848C51.124 80.4827 50.7827 79.2453 50.1 78.136C49.4173 77.0267 48.5213 76.1307 47.412 75.448C46.3027 74.7653 45.0653 74.424 43.7 74.424C42.3347 74.424 41.0973 74.7653 39.988 75.448C38.8787 76.1307 37.9827 77.0267 37.3 78.136C36.7027 79.2453 36.404 80.4827 36.404 81.848V147H15.412V83.384C15.412 78.008 16.6067 73.272 18.996 69.176C21.4707 65.08 24.8413 61.8373 29.108 59.448C33.46 57.0587 38.324 55.864 43.7 55.864C49.1613 55.864 54.0253 57.0587 58.292 59.448C62.5587 61.8373 65.9293 65.08 68.404 69.176C70.8787 73.272 72.116 78.008 72.116 83.384V122.424C72.116 123.875 72.4573 125.155 73.14 126.264C73.8227 127.373 74.676 128.269 75.7 128.952C76.8093 129.549 78.004 129.848 79.284 129.848C80.6493 129.848 81.8867 129.549 82.996 128.952C84.1907 128.269 85.1293 127.373 85.812 126.264C86.4947 125.155 86.836 123.875 86.836 122.424V83.384C86.836 78.008 88.0733 73.272 90.548 69.176C93.0227 65.08 96.3933 61.8373 100.66 59.448C105.012 57.0587 109.833 55.864 115.124 55.864C120.585 55.864 125.407 57.0587 129.588 59.448C133.855 61.8373 137.225 65.08 139.7 69.176C142.175 73.272 143.412 78.008 143.412 83.384V147H122.42V81.72C122.42 80.3547 122.079 79.16 121.396 78.136C120.799 77.0267 119.945 76.1307 118.836 75.448C117.727 74.7653 116.489 74.424 115.124 74.424C113.844 74.424 112.607 74.7653 111.412 75.448C110.303 76.1307 109.407 77.0267 108.724 78.136C108.041 79.16 107.7 80.3547 107.7 81.72V120.888C107.7 126.52 106.42 131.384 103.86 135.48C101.3 139.576 97.8867 142.776 93.62 145.08C89.3533 147.384 84.6173 148.536 79.412 148.536Z" fill="#FAA500"/>
<path d="M65.076 145.08L64.1257 146.84L64.133 146.844L64.1402 146.848L65.076 145.08ZM54.836 135.48L53.1242 136.514L53.132 136.527L53.14 136.54L54.836 135.48ZM50.1 78.136L51.8033 77.0878L51.8033 77.0878L50.1 78.136ZM47.412 75.448L48.4602 73.7447L48.4602 73.7447L47.412 75.448ZM37.3 78.136L35.5967 77.0878L35.5664 77.137L35.5391 77.1878L37.3 78.136ZM36.404 147V149H38.404V147H36.404ZM15.412 147H13.412V149H15.412V147ZM18.996 69.176L17.2842 68.1418L17.2762 68.1549L17.2684 68.1683L18.996 69.176ZM29.108 59.448L28.1455 57.6948L28.1381 57.6989L28.1308 57.703L29.108 59.448ZM58.292 59.448L59.2692 57.703L59.2692 57.703L58.292 59.448ZM68.404 69.176L70.1158 68.1418L70.1158 68.1418L68.404 69.176ZM73.14 126.264L71.4367 127.312L71.4367 127.312L73.14 126.264ZM75.7 128.952L74.5906 130.616L74.6689 130.668L74.7518 130.713L75.7 128.952ZM82.996 128.952L83.9442 130.713L83.9664 130.701L83.9883 130.688L82.996 128.952ZM85.812 126.264L87.5153 127.312L87.5153 127.312L85.812 126.264ZM90.548 69.176L88.8362 68.1418L88.8362 68.1418L90.548 69.176ZM100.66 59.448L99.6975 57.6948L99.6901 57.6989L99.6828 57.703L100.66 59.448ZM129.588 59.448L128.596 61.1845L128.603 61.1888L128.611 61.193L129.588 59.448ZM139.7 69.176L141.412 68.1418L141.412 68.1418L139.7 69.176ZM143.412 147V149H145.412V147H143.412ZM122.42 147H120.42V149H122.42V147ZM121.396 78.136L119.635 79.0842L119.68 79.1671L119.732 79.2454L121.396 78.136ZM111.412 75.448L110.42 73.7115L110.391 73.7276L110.364 73.7447L111.412 75.448ZM108.724 78.136L110.388 79.2454L110.408 79.2151L110.427 79.1842L108.724 78.136ZM103.86 135.48L105.556 136.54L105.556 136.54L103.86 135.48ZM93.62 145.08L94.5703 146.84L94.5703 146.84L93.62 145.08ZM79.412 148.536V146.536C74.5137 146.536 70.059 145.455 66.0118 143.312L65.076 145.08L64.1402 146.848C68.797 149.313 73.8997 150.536 79.412 150.536V148.536ZM65.076 145.08L66.0263 143.32C62.0634 141.18 58.9075 138.221 56.532 134.42L54.836 135.48L53.14 136.54C55.8845 140.931 59.5553 144.372 64.1257 146.84L65.076 145.08ZM54.836 135.48L56.5478 134.446C54.2928 130.713 53.124 126.221 53.124 120.888H51.124H49.124C49.124 126.819 50.4299 132.055 53.1242 136.514L54.836 135.48ZM51.124 120.888H53.124V81.848H51.124H49.124V120.888H51.124ZM51.124 81.848H53.124C53.124 80.1312 52.6895 78.5279 51.8033 77.0878L50.1 78.136L48.3967 79.1842C48.8758 79.9628 49.124 80.8341 49.124 81.848H51.124ZM50.1 78.136L51.8033 77.0878C50.9566 75.7118 49.8362 74.5914 48.4602 73.7447L47.412 75.448L46.3638 77.1513C47.2065 77.6699 47.8781 78.3415 48.3967 79.1842L50.1 78.136ZM47.412 75.448L48.4602 73.7447C47.0201 72.8585 45.4168 72.424 43.7 72.424V74.424V76.424C44.7139 76.424 45.5852 76.6722 46.3638 77.1513L47.412 75.448ZM43.7 74.424V72.424C41.9832 72.424 40.3799 72.8585 38.9398 73.7447L39.988 75.448L41.0362 77.1513C41.8148 76.6722 42.6861 76.424 43.7 76.424V74.424ZM39.988 75.448L38.9398 73.7447C37.5638 74.5914 36.4434 75.7118 35.5967 77.0878L37.3 78.136L39.0033 79.1842C39.5219 78.3415 40.1935 77.6699 41.0362 77.1513L39.988 75.448ZM37.3 78.136L35.5391 77.1878C34.7719 78.6126 34.404 80.1801 34.404 81.848H36.404H38.404C38.404 80.7852 38.6335 79.8781 39.0609 79.0842L37.3 78.136ZM36.404 81.848H34.404V147H36.404H38.404V81.848H36.404ZM36.404 147V145H15.412V147V149H36.404V147ZM15.412 147H17.412V83.384H15.412H13.412V147H15.412ZM15.412 83.384H17.412C17.412 78.3139 18.5355 73.9347 20.7236 70.1837L18.996 69.176L17.2684 68.1683C14.6778 72.6093 13.412 77.7021 13.412 83.384H15.412ZM18.996 69.176L20.7078 70.2102C22.9993 66.4175 26.1139 63.4169 30.0852 61.193L29.108 59.448L28.1308 57.703C23.5687 60.2577 19.9421 63.7425 17.2842 68.1418L18.996 69.176ZM29.108 59.448L30.0705 61.2012C34.1034 58.987 38.6319 57.864 43.7 57.864V55.864V53.864C38.0161 53.864 32.8166 55.1303 28.1455 57.6948L29.108 59.448ZM43.7 55.864V57.864C48.8599 57.864 53.3804 58.9897 57.3148 61.193L58.292 59.448L59.2692 57.703C54.6703 55.1276 49.4627 53.864 43.7 53.864V55.864ZM58.292 59.448L57.3148 61.193C61.2861 63.4169 64.4007 66.4175 66.6922 70.2102L68.404 69.176L70.1158 68.1418C67.4579 63.7425 63.8313 60.2577 59.2692 57.703L58.292 59.448ZM68.404 69.176L66.6922 70.2102C68.9558 73.9569 70.116 78.3264 70.116 83.384H72.116H74.116C74.116 77.6896 72.8015 72.587 70.1158 68.1418L68.404 69.176ZM72.116 83.384H70.116V122.424H72.116H74.116V83.384H72.116ZM72.116 122.424H70.116C70.116 124.201 70.5385 125.853 71.4367 127.312L73.14 126.264L74.8433 125.216C74.3761 124.457 74.116 123.548 74.116 122.424H72.116ZM73.14 126.264L71.4367 127.312C72.2616 128.653 73.3126 129.764 74.5906 130.616L75.7 128.952L76.8094 127.288C76.0394 126.775 75.3838 126.094 74.8433 125.216L73.14 126.264ZM75.7 128.952L74.7518 130.713C76.1574 131.47 77.6785 131.848 79.284 131.848V129.848V127.848C78.3295 127.848 77.4613 127.629 76.6482 127.191L75.7 128.952ZM79.284 129.848V131.848C80.9519 131.848 82.5194 131.48 83.9442 130.713L82.996 128.952L82.0478 127.191C81.2539 127.619 80.3468 127.848 79.284 127.848V129.848ZM82.996 128.952L83.9883 130.688C85.4569 129.849 86.6471 128.723 87.5153 127.312L85.812 126.264L84.1087 125.216C83.6116 126.024 82.9244 126.689 82.0037 127.216L82.996 128.952ZM85.812 126.264L87.5153 127.312C88.4135 125.853 88.836 124.201 88.836 122.424H86.836H84.836C84.836 123.548 84.5759 124.457 84.1087 125.216L85.812 126.264ZM86.836 122.424H88.836V83.384H86.836H84.836V122.424H86.836ZM86.836 83.384H88.836C88.836 78.3264 89.9962 73.9569 92.2598 70.2102L90.548 69.176L88.8362 68.1418C86.1505 72.587 84.836 77.6896 84.836 83.384H86.836ZM90.548 69.176L92.2598 70.2102C94.5513 66.4175 97.6659 63.4169 101.637 61.193L100.66 59.448L99.6828 57.703C95.1207 60.2577 91.4941 63.7425 88.8362 68.1418L90.548 69.176ZM100.66 59.448L101.623 61.2012C105.66 58.9844 110.147 57.864 115.124 57.864V55.864V53.864C109.52 53.864 104.364 55.1329 99.6975 57.6948L100.66 59.448ZM115.124 55.864V57.864C120.285 57.864 124.755 58.9899 128.596 61.1845L129.588 59.448L130.58 57.7115C126.058 55.1274 120.886 53.864 115.124 53.864V55.864ZM129.588 59.448L128.611 61.193C132.582 63.4169 135.697 66.4175 137.988 70.2102L139.7 69.176L141.412 68.1418C138.754 63.7425 135.127 60.2577 130.565 57.703L129.588 59.448ZM139.7 69.176L137.988 70.2102C140.252 73.9569 141.412 78.3264 141.412 83.384H143.412H145.412C145.412 77.6896 144.098 72.587 141.412 68.1418L139.7 69.176ZM143.412 83.384H141.412V147H143.412H145.412V83.384H143.412ZM143.412 147V145H122.42V147V149H143.412V147ZM122.42 147H124.42V81.72H122.42H120.42V147H122.42ZM122.42 81.72H124.42C124.42 80.0047 123.985 78.4146 123.06 77.0266L121.396 78.136L119.732 79.2454C120.172 79.9054 120.42 80.7046 120.42 81.72H122.42ZM121.396 78.136L123.157 77.1878C122.387 75.7576 121.283 74.6054 119.884 73.7447L118.836 75.448L117.788 77.1513C118.608 77.6559 119.21 78.2957 119.635 79.0842L121.396 78.136ZM118.836 75.448L119.884 73.7447C118.444 72.8585 116.841 72.424 115.124 72.424V74.424V76.424C116.138 76.424 117.009 76.6722 117.788 77.1513L118.836 75.448ZM115.124 74.424V72.424C113.47 72.424 111.893 72.8695 110.42 73.7115L111.412 75.448L112.404 77.1845C113.32 76.6611 114.218 76.424 115.124 76.424V74.424ZM111.412 75.448L110.364 73.7447C108.988 74.5914 107.867 75.7118 107.021 77.0878L108.724 78.136L110.427 79.1842C110.946 78.3415 111.618 77.6699 112.46 77.1513L111.412 75.448ZM108.724 78.136L107.06 77.0266C106.135 78.4146 105.7 80.0047 105.7 81.72H107.7H109.7C109.7 80.7046 109.948 79.9054 110.388 79.2454L108.724 78.136ZM107.7 81.72H105.7V120.888H107.7H109.7V81.72H107.7ZM107.7 120.888H105.7C105.7 126.208 104.494 130.692 102.164 134.42L103.86 135.48L105.556 136.54C108.346 132.076 109.7 126.832 109.7 120.888H107.7ZM103.86 135.48L102.164 134.42C99.7885 138.221 96.6326 141.18 92.6697 143.32L93.62 145.08L94.5703 146.84C99.1407 144.372 102.812 140.931 105.556 136.54L103.86 135.48ZM93.62 145.08L92.6697 143.32C88.7163 145.455 84.3106 146.536 79.412 146.536V148.536V150.536C84.924 150.536 89.9904 149.313 94.5703 146.84L93.62 145.08Z" fill="url(#paint1_linear_514_645)" mask="url(#path-3-outside-2_514_645)"/>
<mask id="path-5-outside-3_514_645" maskUnits="userSpaceOnUse" x="20.5" y="53" width="133" height="98" fill="black">
<rect fill="white" x="20.5" y="53" width="133" height="98"/>
<path d="M87.412 148.536C82.2067 148.536 77.428 147.384 73.076 145.08C68.8093 142.776 65.396 139.576 62.836 135.48C60.3613 131.384 59.124 126.52 59.124 120.888V81.848C59.124 80.4827 58.7827 79.2453 58.1 78.136C57.4173 77.0267 56.5213 76.1307 55.412 75.448C54.3027 74.7653 53.0653 74.424 51.7 74.424C50.3347 74.424 49.0973 74.7653 47.988 75.448C46.8787 76.1307 45.9827 77.0267 45.3 78.136C44.7027 79.2453 44.404 80.4827 44.404 81.848V147H23.412V83.384C23.412 78.008 24.6067 73.272 26.996 69.176C29.4707 65.08 32.8413 61.8373 37.108 59.448C41.46 57.0587 46.324 55.864 51.7 55.864C57.1613 55.864 62.0253 57.0587 66.292 59.448C70.5587 61.8373 73.9293 65.08 76.404 69.176C78.8787 73.272 80.116 78.008 80.116 83.384V122.424C80.116 123.875 80.4573 125.155 81.14 126.264C81.8227 127.373 82.676 128.269 83.7 128.952C84.8093 129.549 86.004 129.848 87.284 129.848C88.6493 129.848 89.8867 129.549 90.996 128.952C92.1907 128.269 93.1293 127.373 93.812 126.264C94.4947 125.155 94.836 123.875 94.836 122.424V83.384C94.836 78.008 96.0733 73.272 98.548 69.176C101.023 65.08 104.393 61.8373 108.66 59.448C113.012 57.0587 117.833 55.864 123.124 55.864C128.585 55.864 133.407 57.0587 137.588 59.448C141.855 61.8373 145.225 65.08 147.7 69.176C150.175 73.272 151.412 78.008 151.412 83.384V147H130.42V81.72C130.42 80.3547 130.079 79.16 129.396 78.136C128.799 77.0267 127.945 76.1307 126.836 75.448C125.727 74.7653 124.489 74.424 123.124 74.424C121.844 74.424 120.607 74.7653 119.412 75.448C118.303 76.1307 117.407 77.0267 116.724 78.136C116.041 79.16 115.7 80.3547 115.7 81.72V120.888C115.7 126.52 114.42 131.384 111.86 135.48C109.3 139.576 105.887 142.776 101.62 145.08C97.3533 147.384 92.6173 148.536 87.412 148.536Z"/>
</mask>
<path d="M87.412 148.536C82.2067 148.536 77.428 147.384 73.076 145.08C68.8093 142.776 65.396 139.576 62.836 135.48C60.3613 131.384 59.124 126.52 59.124 120.888V81.848C59.124 80.4827 58.7827 79.2453 58.1 78.136C57.4173 77.0267 56.5213 76.1307 55.412 75.448C54.3027 74.7653 53.0653 74.424 51.7 74.424C50.3347 74.424 49.0973 74.7653 47.988 75.448C46.8787 76.1307 45.9827 77.0267 45.3 78.136C44.7027 79.2453 44.404 80.4827 44.404 81.848V147H23.412V83.384C23.412 78.008 24.6067 73.272 26.996 69.176C29.4707 65.08 32.8413 61.8373 37.108 59.448C41.46 57.0587 46.324 55.864 51.7 55.864C57.1613 55.864 62.0253 57.0587 66.292 59.448C70.5587 61.8373 73.9293 65.08 76.404 69.176C78.8787 73.272 80.116 78.008 80.116 83.384V122.424C80.116 123.875 80.4573 125.155 81.14 126.264C81.8227 127.373 82.676 128.269 83.7 128.952C84.8093 129.549 86.004 129.848 87.284 129.848C88.6493 129.848 89.8867 129.549 90.996 128.952C92.1907 128.269 93.1293 127.373 93.812 126.264C94.4947 125.155 94.836 123.875 94.836 122.424V83.384C94.836 78.008 96.0733 73.272 98.548 69.176C101.023 65.08 104.393 61.8373 108.66 59.448C113.012 57.0587 117.833 55.864 123.124 55.864C128.585 55.864 133.407 57.0587 137.588 59.448C141.855 61.8373 145.225 65.08 147.7 69.176C150.175 73.272 151.412 78.008 151.412 83.384V147H130.42V81.72C130.42 80.3547 130.079 79.16 129.396 78.136C128.799 77.0267 127.945 76.1307 126.836 75.448C125.727 74.7653 124.489 74.424 123.124 74.424C121.844 74.424 120.607 74.7653 119.412 75.448C118.303 76.1307 117.407 77.0267 116.724 78.136C116.041 79.16 115.7 80.3547 115.7 81.72V120.888C115.7 126.52 114.42 131.384 111.86 135.48C109.3 139.576 105.887 142.776 101.62 145.08C97.3533 147.384 92.6173 148.536 87.412 148.536Z" fill="white"/>
<path d="M73.076 145.08L72.1257 146.84L72.133 146.844L72.1402 146.848L73.076 145.08ZM62.836 135.48L61.1242 136.514L61.132 136.527L61.14 136.54L62.836 135.48ZM58.1 78.136L59.8033 77.0878L59.8033 77.0878L58.1 78.136ZM55.412 75.448L56.4602 73.7447L56.4602 73.7447L55.412 75.448ZM45.3 78.136L43.5967 77.0878L43.5664 77.137L43.5391 77.1878L45.3 78.136ZM44.404 147V149H46.404V147H44.404ZM23.412 147H21.412V149H23.412V147ZM26.996 69.176L25.2842 68.1418L25.2762 68.1549L25.2684 68.1683L26.996 69.176ZM37.108 59.448L36.1455 57.6948L36.1381 57.6989L36.1308 57.703L37.108 59.448ZM66.292 59.448L67.2692 57.703L67.2692 57.703L66.292 59.448ZM76.404 69.176L78.1158 68.1418L78.1158 68.1418L76.404 69.176ZM81.14 126.264L79.4367 127.312L79.4367 127.312L81.14 126.264ZM83.7 128.952L82.5906 130.616L82.6689 130.668L82.7518 130.713L83.7 128.952ZM90.996 128.952L91.9442 130.713L91.9664 130.701L91.9883 130.688L90.996 128.952ZM93.812 126.264L95.5153 127.312L95.5153 127.312L93.812 126.264ZM98.548 69.176L96.8362 68.1418L96.8362 68.1418L98.548 69.176ZM108.66 59.448L107.697 57.6948L107.69 57.6989L107.683 57.703L108.66 59.448ZM137.588 59.448L136.596 61.1845L136.603 61.1888L136.611 61.193L137.588 59.448ZM147.7 69.176L149.412 68.1418L149.412 68.1418L147.7 69.176ZM151.412 147V149H153.412V147H151.412ZM130.42 147H128.42V149H130.42V147ZM129.396 78.136L127.635 79.0842L127.68 79.1671L127.732 79.2454L129.396 78.136ZM119.412 75.448L118.42 73.7115L118.391 73.7276L118.364 73.7447L119.412 75.448ZM116.724 78.136L118.388 79.2454L118.408 79.2151L118.427 79.1842L116.724 78.136ZM111.86 135.48L113.556 136.54L113.556 136.54L111.86 135.48ZM101.62 145.08L102.57 146.84L102.57 146.84L101.62 145.08ZM87.412 148.536V146.536C82.5137 146.536 78.059 145.455 74.0118 143.312L73.076 145.08L72.1402 146.848C76.797 149.313 81.8997 150.536 87.412 150.536V148.536ZM73.076 145.08L74.0263 143.32C70.0634 141.18 66.9075 138.221 64.532 134.42L62.836 135.48L61.14 136.54C63.8845 140.931 67.5553 144.372 72.1257 146.84L73.076 145.08ZM62.836 135.48L64.5478 134.446C62.2928 130.713 61.124 126.221 61.124 120.888H59.124H57.124C57.124 126.819 58.4299 132.055 61.1242 136.514L62.836 135.48ZM59.124 120.888H61.124V81.848H59.124H57.124V120.888H59.124ZM59.124 81.848H61.124C61.124 80.1312 60.6895 78.5279 59.8033 77.0878L58.1 78.136L56.3967 79.1842C56.8758 79.9628 57.124 80.8341 57.124 81.848H59.124ZM58.1 78.136L59.8033 77.0878C58.9566 75.7118 57.8362 74.5914 56.4602 73.7447L55.412 75.448L54.3638 77.1513C55.2065 77.6699 55.8781 78.3415 56.3967 79.1842L58.1 78.136ZM55.412 75.448L56.4602 73.7447C55.0201 72.8585 53.4168 72.424 51.7 72.424V74.424V76.424C52.7139 76.424 53.5852 76.6722 54.3638 77.1513L55.412 75.448ZM51.7 74.424V72.424C49.9832 72.424 48.3799 72.8585 46.9398 73.7447L47.988 75.448L49.0362 77.1513C49.8148 76.6722 50.6861 76.424 51.7 76.424V74.424ZM47.988 75.448L46.9398 73.7447C45.5638 74.5914 44.4434 75.7118 43.5967 77.0878L45.3 78.136L47.0033 79.1842C47.5219 78.3415 48.1935 77.6699 49.0362 77.1513L47.988 75.448ZM45.3 78.136L43.5391 77.1878C42.7719 78.6126 42.404 80.1801 42.404 81.848H44.404H46.404C46.404 80.7852 46.6335 79.8781 47.0609 79.0842L45.3 78.136ZM44.404 81.848H42.404V147H44.404H46.404V81.848H44.404ZM44.404 147V145H23.412V147V149H44.404V147ZM23.412 147H25.412V83.384H23.412H21.412V147H23.412ZM23.412 83.384H25.412C25.412 78.3139 26.5355 73.9347 28.7236 70.1837L26.996 69.176L25.2684 68.1683C22.6778 72.6093 21.412 77.7021 21.412 83.384H23.412ZM26.996 69.176L28.7078 70.2102C30.9993 66.4175 34.1139 63.4169 38.0852 61.193L37.108 59.448L36.1308 57.703C31.5687 60.2577 27.9421 63.7425 25.2842 68.1418L26.996 69.176ZM37.108 59.448L38.0705 61.2012C42.1034 58.987 46.6319 57.864 51.7 57.864V55.864V53.864C46.0161 53.864 40.8166 55.1303 36.1455 57.6948L37.108 59.448ZM51.7 55.864V57.864C56.8599 57.864 61.3804 58.9897 65.3148 61.193L66.292 59.448L67.2692 57.703C62.6703 55.1276 57.4627 53.864 51.7 53.864V55.864ZM66.292 59.448L65.3148 61.193C69.2861 63.4169 72.4007 66.4175 74.6922 70.2102L76.404 69.176L78.1158 68.1418C75.4579 63.7425 71.8313 60.2577 67.2692 57.703L66.292 59.448ZM76.404 69.176L74.6922 70.2102C76.9558 73.9569 78.116 78.3264 78.116 83.384H80.116H82.116C82.116 77.6896 80.8015 72.587 78.1158 68.1418L76.404 69.176ZM80.116 83.384H78.116V122.424H80.116H82.116V83.384H80.116ZM80.116 122.424H78.116C78.116 124.201 78.5385 125.853 79.4367 127.312L81.14 126.264L82.8433 125.216C82.3761 124.457 82.116 123.548 82.116 122.424H80.116ZM81.14 126.264L79.4367 127.312C80.2616 128.653 81.3126 129.764 82.5906 130.616L83.7 128.952L84.8094 127.288C84.0394 126.775 83.3838 126.094 82.8433 125.216L81.14 126.264ZM83.7 128.952L82.7518 130.713C84.1574 131.47 85.6785 131.848 87.284 131.848V129.848V127.848C86.3295 127.848 85.4613 127.629 84.6482 127.191L83.7 128.952ZM87.284 129.848V131.848C88.9519 131.848 90.5194 131.48 91.9442 130.713L90.996 128.952L90.0478 127.191C89.2539 127.619 88.3468 127.848 87.284 127.848V129.848ZM90.996 128.952L91.9883 130.688C93.4569 129.849 94.6471 128.723 95.5153 127.312L93.812 126.264L92.1087 125.216C91.6116 126.024 90.9244 126.689 90.0037 127.216L90.996 128.952ZM93.812 126.264L95.5153 127.312C96.4135 125.853 96.836 124.201 96.836 122.424H94.836H92.836C92.836 123.548 92.5759 124.457 92.1087 125.216L93.812 126.264ZM94.836 122.424H96.836V83.384H94.836H92.836V122.424H94.836ZM94.836 83.384H96.836C96.836 78.3264 97.9962 73.9569 100.26 70.2102L98.548 69.176L96.8362 68.1418C94.1505 72.587 92.836 77.6896 92.836 83.384H94.836ZM98.548 69.176L100.26 70.2102C102.551 66.4175 105.666 63.4169 109.637 61.193L108.66 59.448L107.683 57.703C103.121 60.2577 99.4941 63.7425 96.8362 68.1418L98.548 69.176ZM108.66 59.448L109.623 61.2012C113.66 58.9844 118.147 57.864 123.124 57.864V55.864V53.864C117.52 53.864 112.364 55.1329 107.697 57.6948L108.66 59.448ZM123.124 55.864V57.864C128.285 57.864 132.755 58.9899 136.596 61.1845L137.588 59.448L138.58 57.7115C134.058 55.1274 128.886 53.864 123.124 53.864V55.864ZM137.588 59.448L136.611 61.193C140.582 63.4169 143.697 66.4175 145.988 70.2102L147.7 69.176L149.412 68.1418C146.754 63.7425 143.127 60.2577 138.565 57.703L137.588 59.448ZM147.7 69.176L145.988 70.2102C148.252 73.9569 149.412 78.3264 149.412 83.384H151.412H153.412C153.412 77.6896 152.098 72.587 149.412 68.1418L147.7 69.176ZM151.412 83.384H149.412V147H151.412H153.412V83.384H151.412ZM151.412 147V145H130.42V147V149H151.412V147ZM130.42 147H132.42V81.72H130.42H128.42V147H130.42ZM130.42 81.72H132.42C132.42 80.0047 131.985 78.4146 131.06 77.0266L129.396 78.136L127.732 79.2454C128.172 79.9054 128.42 80.7046 128.42 81.72H130.42ZM129.396 78.136L131.157 77.1878C130.387 75.7576 129.283 74.6054 127.884 73.7447L126.836 75.448L125.788 77.1513C126.608 77.6559 127.21 78.2957 127.635 79.0842L129.396 78.136ZM126.836 75.448L127.884 73.7447C126.444 72.8585 124.841 72.424 123.124 72.424V74.424V76.424C124.138 76.424 125.009 76.6722 125.788 77.1513L126.836 75.448ZM123.124 74.424V72.424C121.47 72.424 119.893 72.8695 118.42 73.7115L119.412 75.448L120.404 77.1845C121.32 76.6611 122.218 76.424 123.124 76.424V74.424ZM119.412 75.448L118.364 73.7447C116.988 74.5914 115.867 75.7118 115.021 77.0878L116.724 78.136L118.427 79.1842C118.946 78.3415 119.618 77.6699 120.46 77.1513L119.412 75.448ZM116.724 78.136L115.06 77.0266C114.135 78.4146 113.7 80.0047 113.7 81.72H115.7H117.7C117.7 80.7046 117.948 79.9054 118.388 79.2454L116.724 78.136ZM115.7 81.72H113.7V120.888H115.7H117.7V81.72H115.7ZM115.7 120.888H113.7C113.7 126.208 112.494 130.692 110.164 134.42L111.86 135.48L113.556 136.54C116.346 132.076 117.7 126.832 117.7 120.888H115.7ZM111.86 135.48L110.164 134.42C107.788 138.221 104.633 141.18 100.67 143.32L101.62 145.08L102.57 146.84C107.141 144.372 110.812 140.931 113.556 136.54L111.86 135.48ZM101.62 145.08L100.67 143.32C96.7163 145.455 92.3106 146.536 87.412 146.536V148.536V150.536C92.924 150.536 97.9904 149.313 102.57 146.84L101.62 145.08Z" fill="url(#paint2_linear_514_645)" mask="url(#path-5-outside-3_514_645)"/>
<defs>
<linearGradient id="paint0_linear_514_645" x1="83.5" y1="0" x2="83.5" y2="200" gradientUnits="userSpaceOnUse">
<stop stop-color="#F35130"/>
<stop offset="1" stop-color="#FAA500"/>
</linearGradient>
<linearGradient id="paint1_linear_514_645" x1="91.5" y1="0" x2="91.5" y2="200" gradientUnits="userSpaceOnUse">
<stop stop-color="#F35130"/>
<stop offset="1" stop-color="#FAA500"/>
</linearGradient>
<linearGradient id="paint2_linear_514_645" x1="99.5" y1="0" x2="99.5" y2="200" gradientUnits="userSpaceOnUse">
<stop stop-color="#F35130"/>
<stop offset="1" stop-color="#FAA500"/>
</linearGradient>
</defs>
</svg>
